#!OML:ASF I:\Actors\actors\Patient Classification 2\Patient 1\Session 1\actor1.ASF
:FULLY-SPECIFIED
:DEGREES
899
root -0.949871 18.3252 5.59811 4.87154 -2.76119 -3.79428
lowerback 14.7644 1.86005 5.87909
upperback 0.523412 3.5195 0.876956
thorax -7.43253 1.5153 -3.11066
lowerneck -4.01004 -5.26336 -1.12009
upperneck -15.4696 -6.72368 3.39468
head -4.21856 -3.40971 1.48365
rclavicle 9.19379e-015 0
rhumerus 24.5009 26.0833 -69.016
rradius 129.213
rwrist -44.4039
rhand 11.5804 -19.2922
rfingers 7.12502
rthumb 36.6237 -45.453
lclavicle 9.19379e-015 0
lhumerus -43.7192 -28.4373 105.541
lradius 91.9395
lwrist 11.0382
lhand 1.64204 -19.8881
lfingers 7.12502
lthumb 27.1622 8.17706
rfemur 0 0 0
rtibia 0
rfoot 0 0
rtoes 0
lfemur 10.4452 -5.82719 -12.7696
ltibia -15.4272
lfoot -3.73102 20.6623
ltoes -9.31786
900
root -0.954727 18.3243 5.60125 4.83887 -2.71883 -3.78442
lowerback 14.8874 1.895 5.82415
upperback 0.464934 3.56816 0.875744
thorax -7.56345 1.53469 -3.09879
lowerneck -4.07085 -5.31774 -1.21693
upperneck -15.4429 -6.79296 3.42165
head -4.19107 -3.43918 1.50689
rclavicle 4.96962e-015 4.77083e-015
rhumerus 23.501 26.3452 -69.5768
rradius 129.334
rwrist -43.8765
rhand 11.2856 -18.4633
rfingers 7.12502
rthumb 36.3446 -44.6944
lclavicle 4.96962e-015 4.77083e-015
lhumerus -43.8297 -28.5299 105.7
lradius 91.8943
lwrist 11.0007
lhand 1.55936 -19.8866
lfingers 7.12502
lthumb 27.0831 8.19087
rfemur 0 0 0
rtibia 0
rfoot 0 0
rtoes 0
lfemur 10.4688 -5.91676 -12.7667
ltibia -15.3999
lfoot -3.78614 20.7015
ltoes -9.20344
901
root -0.959973 18.3243 5.60368 4.82761 -2.72395 -3.78479
lowerback 15.0452 1.9411 5.74787
upperback 0.371433 3.63296 0.887153
thorax -7.75279 1.5601 -3.0678
lowerneck -4.10341 -5.34557 -1.33991
upperneck -15.4316 -6.82535 3.45567
head -4.17426 -3.44933 1.53782
rclavicle -2.4202e-014 1.09332e-014
rhumerus 22.4145 26.7798 -70.2071
rradius 129.544
rwrist -43.2311
rhand 11.1787 -17.6668
rfingers 7.12502
rthumb 36.2434 -43.9231
lclavicle -2.4202e-014 1.09332e-014
lhumerus -44.0275 -28.5772 105.901
lradius 91.9068
lwrist 10.9979
lhand 1.51258 -19.7646
lfingers 7.12502
lthumb 27.0383 8.31982
rfemur 0 0 0
rtibia 0
rfoot 0 0
rtoes 0
lfemur 10.4824 -5.99099 -12.7532
ltibia -15.3871
lfoot -3.8265 20.7816
ltoes -9.12799
902
root -0.964626 18.3235 5.60639 4.82048 -2.71341 -3.79172
lowerback 15.1957 1.97823 5.66722
upperback 0.294623 3.68433 0.908488
thorax -7.92252 1.5805 -3.02044
lowerneck -4.1777 -5.36066 -1.36635
upperneck -15.4616 -6.85135 3.3912
head -4.17206 -3.45739 1.51944
rclavicle -3.62285e-014 -2.42517e-014
rhumerus 21.3764 27.3167 -70.83
rradius 129.782
rwrist -42.6782
rhand 11.1696 -16.8816
rfingers 7.12502
rthumb 36.2348 -43.14
lclavicle -3.62285e-014 -2.42517e-014
lhumerus -44.2344 -28.5974 106.063
lradius 91.9642
lwrist 10.9476
lhand 1.50442 -19.6748
lfingers 7.12502
lthumb 27.0305 8.41083
rfemur 0 0 0
rtibia 0
rfoot 0 0
rtoes 0
lfemur 10.4965 -5.98298 -12.7316
ltibia -15.3912
lfoot -3.78642 20.7702
ltoes -9.21603
903
root -0.969484 18.3215 5.61105 4.80826 -2.67051 -3.80787
lowerback 15.3023 1.99493 5.59066
upperback 0.252723 3.70711 0.962403
thorax -8.03443 1.59052 -2.93141
lowerneck -4.29423 -5.38543 -1.37534
upperneck -15.5199 -6.90126 3.23235
head -4.17595 -3.47433 1.46655
rclavicle -4.27387e-014 1.98785e-015
rhumerus 20.5289 27.8613 -71.3401
rradius 129.987
rwrist -42.1943
rhand 10.9491 -16.3404
rfingers 7.12502
rthumb 36.026 -42.6505
lclavicle -4.27387e-014 1.98785e-015
lhumerus -44.4244 -28.585 106.198
lradius 92.0378
lwrist 10.8941
lhand 1.51706 -19.7382
lfingers 7.12502
lthumb 27.0426 8.34559
rfemur 0 0 0
rtibia 0
rfoot 0 0
rtoes 0
lfemur 10.5255 -5.92308 -12.695
ltibia -15.4099
lfoot -3.71407 20.6702
ltoes -9.44807
904
root -0.97433 18.3202 5.61475 4.81578 -2.65751 -3.84916
lowerback 15.3636 2.01057 5.54928
upperback 0.217662 3.73091 1.01375
thorax -8.1112 1.60117 -2.86247
lowerneck -4.26397 -5.38909 -1.37728
upperneck -15.7195 -6.92159 3.09397
head -4.25975 -3.47819 1.4293
rclavicle -5.14355e-014 -6.36111e-015
rhumerus 19.6594 28.5172 -71.9826
rradius 130.204
rwrist -41.6145
rhand 10.556 -16.071
rfingers 7.12502
rthumb 35.6535 -42.4719
lclavicle -5.14355e-014 -6.36111e-015
lhumerus -44.5752 -28.5755 106.29
lradius 92.0875
lwrist 10.9208
lhand 1.61997 -19.7999
lfingers 7.12502
lthumb 27.1411 8.26854
rfemur 0 0 0
rtibia 0
rfoot 0 0
rtoes 0
lfemur 10.5494 -5.89623 -12.6304
ltibia -15.4461
lfoot -3.66722 20.622
ltoes -9.597
905
root -0.978342 18.3209 5.61695 4.84965 -2.68393 -3.89091
lowerback 15.4061 2.04335 5.50575
upperback 0.178892 3.77484 1.05288
thorax -8.17915 1.62171 -2.80878
lowerneck -4.16563 -5.36131 -1.37338
upperneck -15.991 -6.89127 3.02863
head -4.38206 -3.46018 1.41941
rclavicle 4.37823e-014 -6.75868e-015
rhumerus 18.6382 29.2649 -72.7221
rradius 130.514
rwrist -40.8054
rhand 10.0975 -15.8223
rfingers 7.12502
rthumb 35.2188 -42.327
lclavicle 4.37823e-014 -6.75868e-015
lhumerus -44.6729 -28.5595 106.354
lradius 92.0955
lwrist 10.9256
lhand 1.7717 -19.8093
lfingers 7.12502
lthumb 27.2862 8.23642
rfemur 0 0 0
rtibia 0
rfoot 0 0
rtoes 0
lfemur 10.5483 -5.90802 -12.5681
ltibia -15.4822
lfoot -3.6679 20.6565
ltoes -9.47805
906
root -0.981397 18.3219 5.61993 4.90431 -2.71716 -3.9056
lowerback 15.4338 2.08323 5.43112
upperback 0.136265 3.82258 1.10062
thorax -8.24541 1.64562 -2.72864
lowerneck -4.20618 -5.29754 -1.39948
upperneck -16.1459 -6.81319 2.94367
head -4.43605 -3.41557 1.39765
rclavicle -4.52235e-015 5.96354e-015
rhumerus 17.5774 30.1154 -73.42
rradius 130.802
rwrist -39.6764
rhand 9.65575 -15.3002
rfingers 7.12502
rthumb 34.7998 -41.9028
lclavicle -4.52235e-015 5.96354e-015
lhumerus -44.757 -28.4852 106.444
lradius 92.0856
lwrist 10.8712
lhand 1.8246 -19.8161
lfingers 7.12502
lthumb 27.3368 8.22164
rfemur 0 0 0
rtibia 0
rfoot 0 0
rtoes 0
lfemur 10.5174 -5.94595 -12.5406
ltibia -15.4906
lfoot -3.7049 20.7339
ltoes -9.28005
907
root -0.983874 18.3226 5.62334 4.95753 -2.7283 -3.89644
lowerback 15.4448 2.11277 5.37235
upperback 0.10653 3.856 1.12951
thorax -8.28714 1.66276 -2.67332
lowerneck -4.27559 -5.18833 -1.4135
upperneck -16.3132 -6.6751 2.84101
head -4.49176 -3.34089 1.36592
rclavicle -1.97791e-014 1.86858e-014
rhumerus 17.1013 30.3671 -73.7061
rradius 130.847
rwrist -39.5125
rhand 9.42401 -14.9152
rfingers 7.12502
rthumb 34.5798 -41.5684
lclavicle -1.97791e-014 1.86858e-014
lhumerus -44.8375 -28.4045 106.512
lradius 92.1101
lwrist 10.8303
lhand 1.77201 -19.8076
lfingers 7.12502
lthumb 27.2865 8.2381
rfemur 0 0 0
rtibia 0
rfoot 0 0
rtoes 0
lfemur 10.4692 -5.97361 -12.5426
ltibia -15.4697
lfoot -3.73243 20.7776
ltoes -9.04822
908
root -0.986439 18.3235 5.62639 4.97924 -2.72068 -3.87026
lowerback 15.4642 2.13607 5.33102
upperback 0.105489 3.88109 1.13244
thorax -8.30009 1.67608 -2.65342
lowerneck -4.27997 -5.06224 -1.3325
upperneck -16.6071 -6.51996 2.69815
head -4.61264 -3.26121 1.31052
rclavicle -1.84373e-014 -1.23246e-014
rhumerus 16.603 30.7791 -74.0516
rradius 130.965
rwrist -39.4622
rhand 9.04051 -14.6168
rfingers 7.12502
rthumb 34.2157 -41.3524
lclavicle -1.84373e-014 -1.23246e-014
lhumerus -44.8713 -28.3852 106.524
lradius 92.1439
lwrist 10.8423
lhand 1.74335 -19.8672
lfingers 7.12502
lthumb 27.2591 8.18278
rfemur 0 0 0
rtibia 0
rfoot 0 0
rtoes 0
lfemur 10.4331 -6.01155 -12.5631
ltibia -15.43
lfoot -3.77518 20.8005
ltoes -8.86254
909
root -0.989056 18.3246 5.62936 4.99714 -2.68263 -3.83858
lowerback 15.4655 2.15139 5.3141
upperback 0.124782 3.896 1.11601
thorax -8.27843 1.68467 -2.66418
lowerneck -4.33027 -4.97961 -1.18116
upperneck -16.9218 -6.42694 2.53048
head -4.73512 -3.21515 1.23456
rclavicle 4.87519e-014 -3.97569e-016
rhumerus 16.0865 31.3965 -74.3577
rradius 131.105
rwrist -38.7405
rhand 8.03815 -14.0087
rfingers 7.12502
rthumb 33.2633 -40.953
lclavicle 4.87519e-014 -3.97569e-016
lhumerus -44.8299 -28.4212 106.49
lradius 92.1324
lwrist 10.8942
lhand 1.78517 -19.9931
lfingers 7.12502
lthumb 27.2991 8.05056
rfemur 0 0 0
rtibia 0
rfoot 0 0
rtoes 0
lfemur 10.3803 -6.07326 -12.5851
ltibia -15.3749
lfoot -3.81711 20.8117
ltoes -8.94648
910
root -0.991798 18.3261 5.63274 5.0382 -2.61049 -3.79871
lowerback 15.4259 2.14132 5.29075
upperback 0.126015 3.8747 1.10262
thorax -8.25699 1.67595 -2.65877
lowerneck -4.30025 -4.91819 -1.07999
upperneck -17.2901 -6.35851 2.40987
head -4.89018 -3.18045 1.18756
rclavicle 1.29707e-014 -1.07344e-014
rhumerus 15.4841 32.1147 -74.697
rradius 131.375
rwrist -37.7475
rhand 7.05765 -13.7366
rfingers 7.12502
rthumb 32.3306 -40.8757
lclavicle 1.29707e-014 -1.07344e-014
lhumerus -44.8314 -28.3864 106.453
lradius 92.1367
lwrist 10.9207
lhand 1.8304 -20.0686
lfingers 7.12502
lthumb 27.3424 7.96824
rfemur 0 0 0
rtibia 0
rfoot 0 0
rtoes 0
lfemur 10.2977 -6.12387 -12.6085
ltibia -15.3355
lfoot -3.82131 20.8016
ltoes -9.13148
